<?xml version="1.0" standalone="no"?>
<!DOCTYPE svg PUBLIC "-//W3C//DTD SVG 20010904//EN"
 "http://www.w3.org/TR/2001/REC-SVG-20010904/DTD/svg10.dtd">
<svg version="1.0" xmlns="http://www.w3.org/2000/svg"
 width="500.000000pt" height="500.000000pt" viewBox="0 0 500.000000 500.000000"
 preserveAspectRatio="xMidYMid meet">
<metadata>
Created by potrace 1.11, written by Peter Selinger 2001-2013
</metadata>
<g transform="translate(0.000000,500.000000) scale(0.100000,-0.100000)"
fill="#000000" stroke="none">
<path d="M3415 4429 c-94 -14 -106 -16 -180 -33 -155 -37 -333 -113 -456 -196
-35 -24 -69 -49 -75 -54 -141 -131 -202 -208 -260 -329 -56 -118 -75 -203 -79
-352 -4 -152 16 -267 65 -369 16 -35 30 -66 30 -70 0 -18 96 -141 160 -207
212 -215 439 -333 1035 -540 369 -128 579 -241 712 -383 111 -119 155 -234
148 -386 -12 -268 -226 -466 -600 -555 -130 -32 -169 -36 -355 -40 -211 -4
-358 17 -549 81 -100 33 -239 97 -291 134 -120 85 -229 90 -300 15 -32 -34
-50 -110 -37 -155 21 -76 74 -120 255 -210 192 -95 416 -168 602 -195 136 -19
183 -22 330 -20 190 3 278 14 443 56 549 139 854 466 855 918 1 219 -59 395
-187 552 -63 78 -75 90 -156 156 -188 153 -370 239 -900 423 -407 142 -630
261 -768 410 -107 116 -148 222 -142 370 12 321 280 558 705 623 138 22 356
15 464 -14 22 -6 48 -12 56 -14 108 -21 397 -159 430 -206 14 -19 95 -51 133
-52 125 -2 214 125 164 232 -23 48 -70 91 -183 167 -172 114 -381 194 -615
234 -84 14 -378 20 -454 9z"/>
<path d="M263 3390 c-81 -38 -130 -119 -120 -202 11 -98 37 -126 194 -197 258
-118 642 -295 718 -330 44 -20 115 -53 157 -72 43 -19 78 -36 78 -39 0 -3 -82
-43 -182 -90 -101 -46 -243 -112 -317 -147 -73 -35 -134 -63 -136 -63 -1 0
-52 -23 -111 -51 -60 -28 -158 -74 -219 -102 -60 -28 -118 -61 -129 -72 -27
-29 -56 -95 -56 -130 0 -83 58 -173 127 -196 82 -27 110 -17 398 137 33 18 89
48 125 66 36 19 110 58 165 87 55 30 147 78 205 109 58 30 132 69 165 87 33
18 128 68 210 110 83 43 162 88 177 99 63 48 88 157 53 230 -32 67 -50 79
-445 288 -47 25 -121 64 -165 88 -44 23 -118 63 -165 88 -95 50 -204 108 -295
157 -273 146 -297 158 -345 160 -30 1 -64 -5 -87 -15z"/>
</g>
</svg>
